<svg width="64" height="64" viewBox="0 0 64 64" fill="none" xmlns="http://www.w3.org/2000/svg">
<path d="M21.3333 18.6667V8M42.6667 18.6667V8M18.6667 29.3333H45.3333M13.3333 56H50.6667C52.0812 56 53.4377 55.4381 54.4379 54.4379C55.4381 53.4377 56 52.0812 56 50.6667V18.6667C56 17.2522 55.4381 15.8956 54.4379 14.8954C53.4377 13.8952 52.0812 13.3333 50.6667 13.3333H13.3333C11.9188 13.3333 10.5623 13.8952 9.5621 14.8954C8.5619 15.8956 8 17.2522 8 18.6667V50.6667C8 52.0812 8.5619 53.4377 9.5621 54.4379C10.5623 55.4381 11.9188 56 13.3333 56Z" stroke="#3F3F46" stroke-width="2" stroke-linecap="round" stroke-linejoin="round"/>
</svg>
